<?xml version="1.0" standalone="no"?>
<!DOCTYPE svg PUBLIC "-//W3C//DTD SVG 20010904//EN"
 "http://www.w3.org/TR/2001/REC-SVG-20010904/DTD/svg10.dtd">
<svg version="1.0" xmlns="http://www.w3.org/2000/svg"
 width="260.000000pt" height="260.000000pt" viewBox="0 0 260.000000 260.000000"
 preserveAspectRatio="xMidYMid meet">
<metadata>
Created by potrace 1.11, written by Peter Selinger 2001-2013
</metadata>
<g transform="translate(0.000000,260.000000) scale(0.100000,-0.100000)"
fill="#000000" stroke="none">
<path d="M156 2464 c-14 -14 -16 -134 -16 -1169 0 -1035 2 -1155 16 -1169 14
-14 133 -16 1159 -16 1026 0 1145 2 1159 16 14 14 16 134 16 1169 0 1035 -2
1155 -16 1169 -14 14 -133 16 -1159 16 -1026 0 -1145 -2 -1159 -16z m714 -565
c79 -12 138 -45 172 -96 98 -143 38 -341 -122 -400 l-54 -20 38 -18 c46 -22
94 -86 171 -225 32 -58 66 -120 77 -137 l20 -33 -165 0 -165 0 -91 163 c-50
90 -101 173 -115 186 -13 12 -42 25 -65 28 l-41 6 0 -192 0 -191 -145 0 -145
0 0 470 0 470 283 0 c155 0 311 -5 347 -11z m587 -419 c24 -91 49 -183 55
-205 l11 -40 66 205 67 205 119 0 119 0 65 -197 c36 -109 68 -198 71 -198 3 0
28 86 55 191 28 105 53 195 56 200 3 6 58 8 126 7 l121 -3 -122 -335 -123
-335 -115 -3 -116 -3 -67 201 c-37 111 -69 199 -72 197 -2 -3 -32 -92 -66
-198 l-63 -194 -116 -3 c-103 -2 -116 -1 -123 15 -9 23 -165 447 -211 571
l-33 93 126 -3 126 -3 44 -165z m883 -810 c17 -17 20 -33 20 -115 0 -152 134
-135 -1065 -135 -1199 0 -1065 -17 -1065 135 0 152 -134 135 1065 135 1012 0
1025 0 1045 -20z"/>
<path d="M530 1626 l0 -96 73 0 c97 1 147 14 175 45 29 34 28 77 -2 112 -23
27 -28 28 -135 31 l-111 4 0 -96z"/>
</g>
</svg>
